<svg width="60" height="60" viewBox="0 0 60 60" fill="none" xmlns="http://www.w3.org/2000/svg">
<path d="M34.0029 8.02253C34.0029 5.02259 37 3.5225 39.1962 5.02253L49.5885 11.0225C53 13.0225 55 16.0225 55 20.0225L55.0025 52.0225C55.0025 55.0225 52 56.5225 49.5918 55.3975L39.1995 49.3975L39.1994 47.0225L49.5917 53.0225C51.5048 54.1271 53.0002 53.2317 53 51.0225L53 19.0225C52.9999 16.8134 51.5018 14.6271 49.5887 13.5225L39.1964 7.52253C37.2832 6.41796 35.9999 6.81339 36 9.02253L36 12.4989L34.0029 11.4989L34.0029 8.02253Z" fill="#7981FB"/>
<path d="M30 31L38 31" stroke="#E95B31" stroke-width="2"/>
<path d="M46.9342 36.2095C46.2239 37.6302 45.466 38 45.0002 38C44.5345 38 43.7765 37.6303 43.0662 36.2097C42.3727 34.8228 42.0001 32.9387 42 31.0001C41.9999 29.0616 42.3724 27.1774 43.0658 25.7905C43.7761 24.3698 44.534 24 44.9998 24C45.4655 24 46.2235 24.3697 46.9338 25.7903C47.6273 27.1772 47.9999 29.0613 48 30.9999C48.0001 32.9384 47.6276 34.8226 46.9342 36.2095Z" stroke="#F4AD98" stroke-width="2"/>
<path fill-rule="evenodd" clip-rule="evenodd" d="M4.00287 8.0223C4.00287 5.02237 7 3.52227 9.19615 5.0223L19.5885 11.0223C23 13.0223 25 16.0223 25 20.0223L25.0024 52.0223C25.0024 55.0223 22 56.5223 19.5918 55.3973L9.19947 49.3973C5.5 47.0223 4.00287 44.0223 4.00287 40.0223L4.00287 8.0223ZM9.1963 7.5223C7.28313 6.41773 5.99983 6.81316 6 9.0223L6 41.0223C6.00017 43.2314 7.28615 45.9177 9.19932 47.0223L19.5916 53.0223C21.5048 54.1269 23.0002 53.2314 23 51.0223L23 19.0223C22.9998 16.8132 21.5018 14.6269 19.5886 13.5223L9.1963 7.5223Z" fill="#7981FB"/>
<path d="M19.0029 8.01057C19.0029 5.01063 22 3.51054 24.1962 5.01057L34.5885 11.0106C38 13.0106 40 16.0106 40 20.0106L40.0025 52.0106C40.0025 55.0106 37 56.5106 34.5918 55.3856L24.1995 49.3856L24.1994 47.0106L34.5917 53.0106C36.5048 54.1151 38.0002 53.2197 38 51.0106L38 19.0106C37.9999 16.8014 36.5018 14.6151 34.5887 13.5106L24.1964 7.51057C22.2832 6.406 20.9999 6.80143 21 9.01057L21 12.4988L19.0029 11.4988L19.0029 8.01057Z" fill="#7981FB"/>
<path fill-rule="evenodd" clip-rule="evenodd" d="M31.0392 14.1105C30.4653 13.7791 30 13.9582 30.0001 14.5105C30.0001 15.0628 30.4654 15.7791 31.0394 16.1105L34.1571 17.9105C34.731 18.2419 35.1963 18.0628 35.1962 17.5105C35.1962 16.9582 34.7309 16.2419 34.1569 15.9105L31.0392 14.1105Z" fill="#7981FB"/>
<path d="M31.9342 36.2095C31.2239 37.6302 30.466 38 30.0002 38C29.5345 38 28.7765 37.6303 28.0662 36.2097C27.3727 34.8228 27.0001 32.9387 27 31.0001C26.9999 29.0616 27.3724 27.1774 28.0658 25.7905C28.7761 24.3698 29.534 24 29.9998 24C30.4655 24 31.2235 24.3697 31.9338 25.7903C32.6273 27.1772 32.9999 29.0613 33 30.9999C33.0001 32.9384 32.6276 34.8226 31.9342 36.2095Z" stroke="#F4AD98" stroke-width="2"/>
<path d="M14 31L18 31" stroke="#E95B31" stroke-width="2"/>
<path d="M18 31L23 31" stroke="#E95B31" stroke-width="2"/>
<path d="M15.9342 36.2095C15.2239 37.6302 14.466 38 14.0002 38C13.5345 38 12.7765 37.6303 12.0662 36.2097C11.3727 34.8228 11.0001 32.9387 11 31.0001C10.9999 29.0616 11.3724 27.1774 12.0658 25.7905C12.7761 24.3698 13.534 24 13.9998 24C14.4655 24 15.2235 24.3697 15.9338 25.7903C16.6273 27.1772 16.9999 29.0613 17 30.9999C17.0001 32.9384 16.6276 34.8226 15.9342 36.2095Z" stroke="#F4AD98" stroke-width="2"/>
<path d="M14.7072 33.1213C14.3167 34.2929 13.6835 34.2929 13.2929 33.1214C12.9024 31.9498 12.9023 30.0503 13.2928 28.8787C13.6833 27.7071 14.3165 27.7071 14.7071 28.8786C15.0976 30.0502 15.0977 31.9497 14.7072 33.1213Z" fill="#E95B31"/>
<path d="M45.7072 33.1213C45.3167 34.2929 44.6835 34.2929 44.2929 33.1214C43.9024 31.9498 43.9023 30.0503 44.2928 28.8787C44.6833 27.7071 45.3165 27.7071 45.7071 28.8786C46.0976 30.0502 46.0977 31.9497 45.7072 33.1213Z" fill="#E95B31"/>
<path d="M40 30.9988H45" stroke="#E95B31" stroke-width="2"/>
<path d="M25 30.9988L30 30.9988" stroke="#E95B31" stroke-width="2"/>
</svg>
